<svg id="Layer_1" data-name="Layer 1" xmlns="http://www.w3.org/2000/svg" viewBox="0 0 128 128"><defs><style>.cls-1{fill:#3c4653;}.cls-2{fill:#2f78bc;}</style></defs><path class="cls-1" d="M76.06228,63.4011a52.373,52.373,0,0,0-9.9576-5.1836,53.46486,53.46486,0,0,1-7.5058-3.8561,6.70588,6.70588,0,0,1-2.9815-7.1793,7.20612,7.20612,0,0,1,5.237-5.8899c3.0383-1.0495,6.1763-.7496,9.1148-.2682a20.48479,20.48479,0,0,1,7.2858,2.6851l.8561.5113.9628-2.3869c.6198-1.5341,1.2226-3.0283,1.7857-4.5357a1.7272,1.7272,0,0,0-.8462-1.9205l-1.1527-.5249a26.46189,26.46189,0,0,0-4.2509-1.6755,43.67515,43.67515,0,0,0-4.8639-.9096c-.483-.0716-.9695-.1432-1.4592-.2198V22.6811h-7.7921v9.8811l-.643.1548a21.22015,21.22015,0,0,0-8.3519,3.8862,16.154,16.154,0,0,0-6.1399,12.4795,14.85758,14.85758,0,0,0,5.3836,11.7749,39.16224,39.16224,0,0,0,10.4607,5.8733,31.50363,31.50363,0,0,1,8.0921,4.2758,9.21578,9.21578,0,0,1,3.6346,8.507,8.576,8.576,0,0,1-5.5302,6.7461,15.05418,15.05418,0,0,1-4.9905,1.0277,24.87123,24.87123,0,0,1-13.0292-3.2448L47.019,82.7634l-.9262,2.6519c-.4565,1.3192-.8996,2.6001-1.3793,3.8628a1.72437,1.72437,0,0,0,.823,2.3519,25.66229,25.66229,0,0,0,8.082,3.0799c1.4958.295,2.9715.4897,4.5341.6946.4397.0584.8828.1167,1.3293.1782v9.7362h8.2085V95.1247c.3665-.1099.7296-.2148,1.0894-.3182a30.21552,30.21552,0,0,0,3.5713-1.1859c6.353-2.6968,10.0176-7.2858,10.9005-13.6389C84.20768,73.0657,81.789,67.4873,76.06228,63.4011Z"/><path class="cls-2" d="M35.885,51.6342s-12.8904,0-18.1286.0158a3.77691,3.77691,0,0,0-2.4061.7652c-3.1161,2.7374-6.2401,5.5696-9.2695,8.2912L3.872,62.6944l-.1815.1735a1.83964,1.83964,0,0,0,.1657,2.4535l2.1694,1.9249c3.2187,2.8873,6.2559,5.6247,9.3878,8.3937a3.08947,3.08947,0,0,0,2.0116.71l18.46.0158a.76591.76591,0,0,0,.7652-.7652V52.3994A.76591.76591,0,0,0,35.885,51.6342Zm-6.8397,15.6673a1.8464,1.8464,0,1,1-2.6112,2.6112l-3.3054-3.3054-3.2976,3.3054a1.84594,1.84594,0,0,1-1.3095.5444,1.81517,1.81517,0,0,1-1.3017-.5444,1.83806,1.83806,0,0,1,0-2.6112l3.2976-3.3054-3.2976-3.2976a1.8464,1.8464,0,1,1,2.6112-2.6112l3.2976,3.2976,3.3054-3.2976a1.8464,1.8464,0,1,1,2.6112,2.6112l-3.3054,3.2976Z"/><path class="cls-2" d="M124.30338,62.8719l-.1814-.1815-2.2089-1.988c-3.0214-2.7216-6.1533-5.5458-9.2694-8.2833a3.77817,3.77817,0,0,0-2.4061-.7731c-5.2303-.0079-18.1286-.0079-18.1286-.0079a.76092.76092,0,0,0-.7652.7653V75.5966a.761.761,0,0,0,.7652.7653l18.4599-.0158a3.14969,3.14969,0,0,0,2.0196-.7022c3.124-2.769,6.1612-5.5064,9.3878-8.3937l2.1615-1.9249a1.81851,1.81851,0,0,0,.1656-2.4534Zm-11.991-1.8066-8.1808,8.1808a1.7,1.7,0,0,1-2.414,0l-4.2994-4.2995a1.64819,1.64819,0,0,1,.2682-2.548,1.67556,1.67556,0,0,1,2.0906.2445l3.1476,3.1477,7.029-7.029a1.67681,1.67681,0,0,1,2.0905-.2525A1.6516,1.6516,0,0,1,112.31238,61.0653Z"/></svg>